# xmcd
#
# Track frame offsets:
#	150
#	14825
#	38417
#	53790
#	72360
#	110850
#	125707
#	152065
#	176880
#	192045
#	209095
#	228045
#	247497
#	299325
#	323282
#
# Disc length: 4601 seconds
#
# Revision: 3236760533
# Processed by: cddbd v1.5.2PL0 Copyright (c) Steve Scherf et al.
# Submitted via: EZCDAudioConverter 9.0.5.1
#
DISCID=e311f70f
DTITLE=B.B. King - Anthology [Disc 2]
DYEAR=2000
DGENRE=Contemporary Blues
TTITLE0=B.B. King - Ain't Nobody Home
TTITLE1=B.B. King - Ghetto Woman
TTITLE2=B.B. King - I Got Some Help I Don't Need
TTITLE3=B.B. King - Guess Who
TTITLE4=B.B. King - To Know You Is To Love You
TTITLE5=B.B. King - I Like To Live The Love
TTITLE6=B.B. King - Let The Good Times Roll
TTITLE7=B.B. King - Never Make A Move Too Soon
TTITLE8=B.B. King - Better Not Look Down
TTITLE9=B.B. King - There Must Be A Better World Somewhere
TTITLE10=B.B. King - Into The Night
TTITLE11=U2 and B.B. King - When Love Comes To Town
TTITLE12=B.B. King and Albert Collins - Call It A Stormy Monday
TTITLE13=B.B. King and Robert Cray - Playin' With My Friends
TTITLE14=B.B. King - I'll Survive
EXTD=
EXTT0=
EXTT1=
EXTT2=
EXTT3=
EXTT4=
EXTT5=
EXTT6=
EXTT7=
EXTT8=
EXTT9=
EXTT10=
EXTT11=
EXTT12=
EXTT13=
EXTT14=
PLAYORDER=
